<!DOCTYPE svg PUBLIC "-//W3C//DTD SVG 1.1//EN" "http://www.w3.org/Graphics/SVG/1.1/DTD/svg11.dtd">
<!-- Uploaded to: SVG Repo, www.svgrepo.com, Transformed by: SVG Repo Mixer Tools -->
<svg width="800px" height="800px" viewBox="0 0 32 32" xmlns="http://www.w3.org/2000/svg" fill="#000000">
<g id="SVGRepo_bgCarrier" stroke-width="0"/>
<g id="SVGRepo_tracerCarrier" stroke-linecap="round" stroke-linejoin="round"/>
<g id="SVGRepo_iconCarrier"> <g fill="none"> <circle fill="#864def" cx="16" cy="16" r="16"/> <path d="M26.822 15.568l-10.39-10.39a.607.607 0 00-.86 0L5.18 15.569a.607.607 0 000 .86l10.39 10.393a.607.607 0 00.859 0l10.39-10.389a.608.608 0 00.004-.864zm-2.284.52l-7.616 7.616V16h-1.848v7.704l-7.616-7.616a.12.12 0 010-.172l8.454-8.453a.12.12 0 01.172 0l8.454 8.453a.12.12 0 010 .172c0-.004 0-.004 0 0z" fill="#FFF"/> </g> </g>
</svg>